PathFileType	3	(X/Y/Z)	RCH0000002 BBF 12.c3d
DataRate	CameraRate	NumFrames	NumMarkers	Units	OrigDataRate	OrigDataStartFrame	OrigNumFrames
100.0	100.0	5	23	mm	100.0	160	406
Frame#	Time	T10			RPSI			LPAT			LANK			LMED			LTOE			RPAT			RKNE			RANK			RMED			RTOE			LKNE			RHEE			RASI			MAN			LHEE			LASI			T2			LPSI			RTHI			LTHI			RTIB			LTIB			
		X1	Y1	Z1	X2	Y2	Z2	X3	Y3	Z3	X4	Y4	Z4	X5	Y5	Z5	X6	Y6	Z6	X7	Y7	Z7	X8	Y8	Z8	X9	Y9	Z9	X10	Y10	Z10	X11	Y11	Z11	X12	Y12	Z12	X13	Y13	Z13	X14	Y14	Z14	X15	Y15	Z15	X16	Y16	Z16	X17	Y17	Z17	X18	Y18	Z18	X19	Y19	Z19	X20	Y20	Z20	X21	Y21	Z21	X22	Y22	Z22	X23	Y23	Z23	

160	1.590	-1606.41392	-70.02734	796.10464	-1614.19044	-108.50725	703.30303	-1499.92627	-27.91395	383.87908	-1584.19414	45.52647	70.69819	-1589.73092	-24.28026	87.83497	-1538.69129	4.46522	68.55750	-1472.19286	-114.88894	355.19535	-1532.85782	-160.98958	330.67194	-1718.77448	-166.71469	135.04707	-1715.04445	-98.61393	148.95337	-1692.30378	-131.63189	95.29139	-1534.36736	36.28435	343.62127	-1732.06004	-134.10219	187.89328	-1503.56154	-161.35262	649.89458	-1487.47659	-24.76884	962.03102	-1629.00627	9.84708	100.64038	-1505.36038	16.07586	653.99502	-1620.52456	-45.10045	990.28786	-1614.69466	-36.66108	705.40353	-1526.62609	-232.33074	441.21358	-1533.40580	105.58644	468.92574	-1611.00723	-229.86844	252.63354	-1550.20547	103.84923	227.81052	
161	1.600	-1596.80478	-70.25454	797.85541	-1604.08242	-109.77705	704.47065	-1495.71295	-26.39113	384.03768	-1584.63402	43.64132	71.89598	-1588.14100	-25.99054	89.19179	-1538.13767	3.88201	69.04524	-1452.01200	-111.84792	361.81920	-1510.85249	-158.86434	335.21547	-1692.16942	-167.27342	135.84192	-1690.39104	-99.14346	149.63420	-1664.61738	-131.82557	97.59716	-1532.46985	36.56792	344.23757	-1707.68213	-134.94196	188.04410	-1492.03112	-159.00063	651.59852	-1476.51371	-25.53491	963.24102	-1628.06556	7.01285	102.39250	-1499.10618	17.83914	655.07089	-1609.29685	-46.57029	992.19813	-1606.57482	-38.33598	706.32364	-1507.02964	-230.68514	445.45197	-1531.77723	105.88015	469.53916	-1586.39367	-228.70811	255.82319	-1551.56802	103.38001	228.63526	
162	1.610	-1587.24319	-70.51953	799.52559	-1594.01841	-111.07483	705.54822	-1491.53070	-24.84721	384.15196	-1585.01567	41.90275	73.04796	-1586.57480	-27.55804	90.51271	-1537.57091	3.38715	69.50773	-1431.93018	-108.79415	368.40663	-1488.90772	-156.73835	339.74016	-1665.57416	-167.86074	136.61646	-1665.72184	-99.69576	150.26508	-1636.94636	-132.05382	99.87534	-1530.56004	36.89996	344.83482	-1683.30605	-135.79908	188.14774	-1480.56791	-156.68074	653.20423	-1465.60792	-26.30386	964.36450	-1627.10540	4.37417	104.09618	-1492.87324	19.55356	656.11188	-1598.13208	-48.02357	994.02109	-1598.48270	-40.04415	707.18317	-1487.49229	-229.01696	449.67176	-1530.14035	106.17656	470.15870	-1561.81388	-227.56251	258.99810	-1552.78498	102.99021	229.43177	
163	1.620	-1577.74047	-70.86077	801.03472	-1584.00416	-112.42310	706.44536	-1487.38184	-23.26784	384.17765	-1585.29230	40.42937	74.11988	-1585.05034	-28.86659	91.76963	-1536.98138	3.05218	69.92429	-1412.03555	-105.71345	374.90267	-1467.07365	-154.60633	344.21071	-1638.93096	-168.49551	137.32866	-1640.96333	-100.28985	150.77237	-1609.24442	-132.33689	102.07940	-1528.60350	37.31777	345.39343	-1658.87304	-136.69086	188.12913	-1469.19850	-154.42451	654.61712	-1454.78262	-27.08897	965.31895	-1626.10841	2.08983	105.71685	-1486.64191	21.17374	657.08150	-1587.05966	-49.45512	995.66950	-1590.40631	-41.81185	707.91991	-1468.05754	-227.30261	453.83804	-1528.44923	106.47732	470.78369	-1537.26398	-226.43847	262.12707	-1553.72532	102.74339	230.17752	
164	1.630	-1568.29422	-71.31037	802.31817	-1574.03213	-113.83675	707.08884	-1483.26788	-21.64590	384.08188	-1585.43655	39.30248	75.08649	-1583.58359	-29.83601	92.94139	-1536.36571	2.92705	70.28000	-1392.40107	-102.59999	381.26137	-1445.39488	-152.46376	348.59752	-1612.15854	-169.18777	137.93612	-1616.02120	-100.93731	151.08438	-1581.43963	-132.68485	104.16474	-1526.57479	37.84556	345.90018	-1634.30429	-137.62716	187.91288	-1457.93202	-152.25912	655.76207	-1444.04605	-27.90506	966.03913	-1625.06899	0.26855	107.22968	-1480.38023	22.66270	657.95096	-1576.09254	-50.86513	997.07263	-1582.32115	-43.65587	708.48462	-1448.76933	-225.52576	457.91922	-1526.65247	106.78370	471.41246	-1512.73166	-225.33942	265.18412	-1554.30390	102.68451	230.85652	
